<svg width="180" height="181" viewBox="0 0 180 181" xmlns="http://www.w3.org/2000/svg"><g fill="none" fill-rule="evenodd"><path d="M0 0h180v180.443H0V0z" fill="#E4E5E1"/><path d="M5 5.012h170v170.42H5V5.01z" fill="#fff"/><path d="M13.987 101.686c-.124-.435.124-.745.556-.745h2.846c.24 0 .49.22.55.44l3.21 12.38h.123l4.92-12.772c.06-.186.216-.34.525-.34h.557c.31 0 .462.154.524.34l4.95 12.778h.123l3.157-12.372c.064-.216.31-.433.56-.433h2.842c.432 0 .68.31.556.746l-5.85 20.842c-.06.246-.31.433-.556.433h-.49c-.28 0-.465-.154-.527-.34l-5.54-14.05h-.154l-5.473 14.05c-.09.186-.215.34-.525.34h-.492c-.247 0-.494-.186-.556-.433L13.99 101.7m31.497-.16c0-.31.247-.59.587-.59h12.59c.34 0 .59.28.59.59v2.543c0 .31-.25.59-.59.59H49.5v5.084h7.642c.31 0 .587.28.587.59v2.57c0 .34-.28.59-.59.59H49.5v5.428h9.158c.34 0 .59.28.59.59v2.545c0 .31-.25.59-.59.59H46.07c-.34 0-.588-.28-.588-.59v-20.53m20.048-.002c0-.31.246-.59.587-.59h7.085c3.68 0 6.527 2.483 6.527 5.74 0 2.388-1.95 4.25-3.41 4.93 1.64.53 4.02 2.203 4.02 5.057 0 3.473-2.97 5.986-6.75 5.986h-7.48c-.34 0-.59-.28-.59-.59v-20.54zm7.3 8.53c1.578 0 2.662-1.24 2.662-2.79s-1.084-2.637-2.66-2.637H69.52v5.43h3.31zm.433 8.933c1.548 0 2.785-1.21 2.785-2.82 0-1.55-1.547-2.7-3.155-2.7H69.52V119h3.743zm-47.767 7.37c3.125 0 5.383 1 7.487 2.89.28.25.28.62.03.87l-1.886 1.955c-.217.248-.526.248-.774 0-1.3-1.147-3.032-1.83-4.765-1.83-3.96 0-6.9 3.32-6.9 7.227 0 3.875 2.97 7.16 6.93 7.16 1.858 0 3.435-.716 4.735-1.77.248-.22.588-.19.774 0l1.917 1.984c.248.218.186.62-.03.838-2.104 2.05-4.765 3.01-7.518 3.01-6.188 0-11.17-4.93-11.17-11.132 0-6.203 4.982-11.197 11.17-11.197m11.23 21.215l9.622-20.873c.093-.186.248-.34.525-.34h.31c.31 0 .434.16.526.345l9.52 20.87c.18.4-.06.805-.53.805h-2.69c-.47 0-.68-.187-.9-.62l-1.517-3.35h-9.25l-1.517 3.35c-.124.31-.4.62-.897.62h-2.69c-.464 0-.71-.405-.526-.807zm13.365-6.607L47 134.15h-.09l-3.03 6.823h6.217zm14.08-14.142c.03-.246.22-.464.56-.464h.5c.248 0 .43.13.527.312l6.806 14.64h.095l6.806-14.64c.095-.185.25-.31.528-.31h.496c.34 0 .525.218.556.465l3.65 20.84c.09.434-.16.713-.56.713h-2.82c-.28 0-.526-.245-.588-.462l-1.83-11.76h-.09l-5.414 12.19c-.06.186-.247.34-.526.34h-.556c-.278 0-.432-.154-.525-.34l-5.48-12.19h-.09l-1.79 11.755c-.03.216-.278.464-.557.464h-2.79c-.4 0-.65-.28-.586-.715l3.682-20.84" fill="#0B0B0A"/><path d="M90.774 127.26c0-.31.248-.588.588-.588h7.27c3.806 0 6.93 3.1 6.93 6.854 0 3.846-3.124 6.978-6.898 6.978h-3.867v7.29c0 .31-.28.588-.59.588h-2.845c-.34 0-.588-.28-.588-.59v-20.53zm7.61 9.46c1.734 0 3.188-1.395 3.188-3.225 0-1.706-1.454-3.01-3.187-3.01h-3.588v6.235h3.588z" fill="#0B0B0A"/><path d="M14.918 162.32l5.077-7.822v-.025h-4.527c-.087 0-.162-.075-.162-.188v-.2c0-.088.075-.164.162-.164h5.153c.1 0 .17.08.17.17v.2l-5.09 7.85v.01h4.67c.1 0 .16.08.16.17v.227c0 .087-.06.163-.16.163H15.1c-.1 0-.177-.063-.177-.15v-.226m7.362.224l3.85-8.722c.026-.05.09-.087.15-.087h.04c.06 0 .124.01.16.084l3.815 8.723c.024.073.024.15-.114.15h-.325c-.09 0-.15-.064-.18-.114l-1.01-2.307h-4.78l-1 2.306c-.02.05-.08.113-.17.113h-.35c-.09 0-.12-.05-.09-.15zm6.176-2.756l-2.13-5.05h-.02l-2.172 5.053h4.34zm8.09-5.99c1.26 0 2.22.43 3.03 1.167.06.06.08.16.01.224-.06.072-.14.15-.2.21-.07.09-.13.075-.21 0-.7-.65-1.61-1.05-2.64-1.05-2.17 0-3.89 1.78-3.89 3.945 0 2.17 1.71 3.95 3.89 3.95 1.53 0 2.48-.59 2.6-.69v-2.36H37c-.14 0-.164-.05-.164-.166v-.25c0-.1.025-.15.163-.15h2.56c.09 0 .16.074.16.15v2.907c0 .188-.078.25-.178.326-.225.15-1.363.8-3 .8-2.515 0-4.527-1.98-4.527-4.5 0-2.506 2.013-4.524 4.527-4.524m6.387.29c0-.09.06-.163.162-.163h3.1c1.523 0 2.79 1.16 2.79 2.69 0 1.267-.88 2.28-2.068 2.62l1.824 3.247c.06.1.03.228-.09.228h-.39c-.09 0-.14-.04-.177-.112l-1.815-3.284c-.163.012-.3.012-.463.012h-2.3v3.22c0 .087-.074.163-.2.163h-.224c-.087 0-.162-.075-.162-.162v-8.45zm3.237 4.7c1.2 0 2.213-.94 2.213-2.18 0-1.19-1.01-2.106-2.223-2.106h-2.62v4.287h2.637zm5.887-4.7c0-.09.08-.163.165-.163h5.012c.09 0 .162.08.162.17v.215c0 .087-.075.16-.163.16h-4.58v3.46h3.96c.09 0 .165.077.165.165v.214c0 .09-.075.164-.163.164h-3.96v3.71h4.577c.087 0 .162.078.162.165v.2c0 .085-.075.16-.163.16h-5.01c-.088 0-.163-.075-.163-.162v-8.45m8.48 0c0-.084.077-.16.16-.16h2.66c1.54 0 2.59.895 2.59 2.27 0 .99-.6 1.72-1.37 2.03.885.24 1.65.89 1.65 2.097 0 1.403-1.127 2.38-2.75 2.38H60.7c-.09 0-.164-.076-.164-.163v-8.45zm2.99 8.088c1.213 0 2.063-.78 2.063-1.87 0-1.117-.95-1.78-2.133-1.78H61.12v3.646h2.413zm-.074-4.19c1.18 0 1.866-.74 1.866-1.767 0-1.09-.75-1.745-1.95-1.745h-2.24v3.51h2.327zm8.714 4.15c.925-1.052 2.225-2.644 3.15-3.747.626-.704.95-1.33.95-1.83 0-.64-.437-1.37-1.537-1.37-.69 0-1.25.477-1.59.84-.1.1-.24.1-.332 0l-.423-.425c-.075-.074-.1-.225-.012-.325 0 0 .94-1.23 2.43-1.23 1.786 0 2.737 1.14 2.737 2.457 0 .966-.523 1.63-1.2 2.445-.66.8-1.536 1.83-2.274 2.67h3.19c.124 0 .237.11.237.24v.6c0 .125-.113.238-.24.238H72.4c-.137 0-.237-.112-.237-.237v-.33m7.875-3.696c0-2.745 1.125-4.387 3.1-4.387 1.964 0 3.09 1.643 3.09 4.388s-1.126 4.387-3.09 4.387c-1.975 0-3.1-1.64-3.1-4.383zm4.927 0c0-2.056-.663-3.234-1.826-3.234-1.18 0-1.84 1.18-1.84 3.235 0 2.08.66 3.246 1.84 3.246 1.16 0 1.82-1.163 1.82-3.244zm4.938-2.344l-1 .477c-.113.05-.24.024-.276-.088l-.15-.44c-.038-.1-.013-.2.038-.25l1.775-1.62h.613c.125 0 .225.11.225.24v8.042c0 .126-.1.24-.225.24h-.762c-.13 0-.23-.114-.23-.24v-6.367m4.21 5.267c.17-.14.3-.3.47-.44.1-.09.2-.114.3 0 .09.112.79.813 1.74.813 1.025 0 1.7-.877 1.7-1.767 0-.877-.575-1.604-1.738-1.604h-1.92c-.25 0-.39-.24-.39-.44v-3.51c0-.128.1-.24.24-.24h3.862c.14 0 .24.112.24.24v.612c0 .123-.1.24-.24.24H95.4v1.98h1.264c1.838 0 2.876 1.063 2.876 2.71 0 1.563-1.25 2.87-2.964 2.87-1.362 0-2.125-.668-2.437-1.04-.17-.19-.18-.28-.03-.43m8.3-.274c.49 0 .87.39.87.877 0 .478-.39.866-.877.866-.474 0-.86-.385-.86-.86 0-.49.386-.88.86-.88" fill="#D9262A"/><path d="M60 35.086V25.062H25V85.21h15v-5.013h5V70.172h5V65.16l9.808-10.025H70v-20.05H60" fill="#E4E5E1"/><path d="M75 25.062h5v5.012h-5v-5.012zm-5-5.012h5v5.012h-5V20.05zm-5.192-5.013H60v20.05h5v-15.04h5v-5.012h-5.192" fill="#60605D"/><path d="M20 20.05h40v-5.013H15v80.197h20v-5.012H20V20.05m54.808 10.024H60v5.012h15v15.037h5v-20.05h-5.192M75 90.223H45v5.01h35V60.15h-5v30.074" fill="#0B0B0A"/><path d="M35 50.123h5v5.012h-5v-5.012zM65 65.16v5.012h-5v5.013h-5v5.012h-5v5.012h20V65.16h-5" fill="#E4E5E1"/><path d="M60 50.123V45.11H50v5.013h-5V45.11H35v5.013h5v5.012h-5v-5.012h-5v10.025h5v5.012h5v5.012h5v5.013h5v-5.013h5V65.16h5v-5.012h5V50.123h-5" fill="#D9262A"/></g></svg>